<?xml version="1.0" encoding="UTF-8"?>
<svg width="25px" height="25px" viewBox="0 0 25 25" version="1.1" xmlns="http://www.w3.org/2000/svg" xmlns:xlink="http://www.w3.org/1999/xlink">
    <!-- Generator: Sketch 53.2 (72643) - https://sketchapp.com -->
    <title>Group 4 Copy</title>
    <desc>Created with Sketch.</desc>
    <g id="Solutions" stroke="none" stroke-width="1" fill="none" fill-rule="evenodd">
        <g id="Solutions---Lightbox" transform="translate(-895.000000, -195.000000)">
            <g id="Group" transform="translate(895.000000, 195.000000)">
                <g id="Group-4-Copy">
                    <path d="M7.53151149,24.7174401 L24.3058645,13.7622373 C24.7521449,13.4762431 25,13.0479296 25,12.5240588 C25,11.9520704 24.7521449,11.5237569 24.3058645,11.2377627 L7.53151149,0.282559917 C6.98495922,-0.0501963206 6.3896833,-0.0983138214 5.84383716,0.187680338 C5.29799103,0.472996787 5,0.949427816 5,1.56885592 L5,23.4311441 C5,24.0505722 5.29799103,24.5263255 5.84383716,24.8123197 C6.3896833,25.0983138 6.98495922,25.0501963 7.53151149,24.7174401" id="Path" fill="#FFE4DB"></path>
                    <g id="add-(2)" transform="translate(0.000000, 6.000000)" fill="#FF784B" fill-rule="nonzero">
                        <path d="M11.4706429,4.95238095 L8.04761905,4.95238095 L8.04761905,1.52935714 C8.04761905,0.688380952 7.34128571,0 6.5,0 C5.65871429,0 4.95238095,0.688380952 4.95238095,1.52935714 L4.95238095,4.95238095 L1.52935714,4.95238095 C0.688380952,4.95238095 0,5.65871429 0,6.5 C0,7.34128571 0.688380952,8.04761905 1.52935714,8.04761905 L4.95238095,8.04761905 L4.95238095,11.4706429 C4.95238095,12.311619 5.65871429,13 6.5,13 C7.34128571,13 8.04761905,12.311619 8.04761905,11.4706429 L8.04761905,8.04761905 L11.4706429,8.04761905 C12.311619,8.04761905 13,7.34128571 13,6.5 C13,5.65871429 12.311619,4.95238095 11.4706429,4.95238095 Z" id="Path"></path>
                    </g>
                </g>
            </g>
        </g>
    </g>
</svg>